<svg xmlns="http://www.w3.org/2000/svg" version="1.1" width="78" height="391">
<path d="M 2.878906 13.319336 L 2.878906 6.412109 L 6.729980 6.412109 L 6.729980 7.335938 L 3.738281 7.335938 L 3.738281 13.319336 Z " fill="rgb(0, 0, 0)" fill-opacity="1.000000" />
<path d="M 2.878906 26.319336 L 2.878906 12.300781 L 3.738281 12.300781 L 3.738281 26.319336 Z " fill="rgb(0, 0, 0)" fill-opacity="1.000000" />
<path d="M 2.878906 39.319336 L 2.878906 25.300781 L 3.738281 25.300781 L 3.738281 39.319336 Z " fill="rgb(0, 0, 0)" fill-opacity="1.000000" />
<path d="M 2.878906 46.335938 L 2.878906 38.300781 L 3.738281 38.300781 L 3.738281 45.412109 L 6.729980 45.412109 L 6.729980 46.335938 Z " fill="rgb(0, 0, 0)" fill-opacity="1.000000" />
<path d="M 2.878906 221.319336 L 2.878906 214.412109 L 6.729980 214.412109 L 6.729980 215.335938 L 3.738281 215.335938 L 3.738281 221.319336 Z " fill="rgb(0, 0, 0)" fill-opacity="1.000000" />
<path d="M 2.878906 234.319336 L 2.878906 220.300781 L 3.738281 220.300781 L 3.738281 234.319336 Z " fill="rgb(0, 0, 0)" fill-opacity="1.000000" />
<path d="M 2.878906 241.335938 L 2.878906 233.300781 L 3.738281 233.300781 L 3.738281 240.412109 L 6.729980 240.412109 L 6.729980 241.335938 Z " fill="rgb(0, 0, 0)" fill-opacity="1.000000" />
<path d="M 2.878906 286.319336 L 2.878906 279.412109 L 6.729980 279.412109 L 6.729980 280.335938 L 3.738281 280.335938 L 3.738281 286.319336 Z " fill="rgb(0, 0, 0)" fill-opacity="1.000000" />
<path d="M 2.878906 299.319336 L 2.878906 285.300781 L 3.738281 285.300781 L 3.738281 299.319336 Z " fill="rgb(0, 0, 0)" fill-opacity="1.000000" />
<path d="M 2.878906 306.335938 L 2.878906 298.300781 L 3.738281 298.300781 L 3.738281 305.412109 L 6.729980 305.412109 L 6.729980 306.335938 Z " fill="rgb(0, 0, 0)" fill-opacity="1.000000" />
<path d="M 9.878906 351.319336 L 9.878906 344.412109 L 13.729980 344.412109 L 13.729980 345.335938 L 10.738281 345.335938 L 10.738281 351.319336 Z " fill="rgb(0, 0, 0)" fill-opacity="1.000000" />
<path d="M 9.878906 364.319336 L 9.878906 350.300781 L 10.738281 350.300781 L 10.738281 364.319336 Z " fill="rgb(0, 0, 0)" fill-opacity="1.000000" />
<path d="M 9.878906 377.319336 L 9.878906 363.300781 L 10.738281 363.300781 L 10.738281 377.319336 Z " fill="rgb(0, 0, 0)" fill-opacity="1.000000" />
<path d="M 9.878906 384.335938 L 9.878906 376.300781 L 10.738281 376.300781 L 10.738281 383.412109 L 13.729980 383.412109 L 13.729980 384.335938 Z " fill="rgb(0, 0, 0)" fill-opacity="1.000000" />
<path d="M 13.892578 384.335938 L 13.892578 383.412109 L 20.729980 383.412109 L 20.729980 384.335938 Z " fill="rgb(0, 0, 0)" fill-opacity="1.000000" />
<path d="M 20.892578 384.335938 L 20.892578 383.412109 L 27.729980 383.412109 L 27.729980 384.335938 Z " fill="rgb(0, 0, 0)" fill-opacity="1.000000" />
<path d="M 27.892578 384.335938 L 27.892578 383.412109 L 34.729980 383.412109 L 34.729980 384.335938 Z " fill="rgb(0, 0, 0)" fill-opacity="1.000000" />
<path d="M 34.892578 384.335938 L 34.892578 383.412109 L 41.729980 383.412109 L 41.729980 384.335938 Z " fill="rgb(0, 0, 0)" fill-opacity="1.000000" />
<path d="M 41.892578 384.335938 L 41.892578 383.412109 L 48.729980 383.412109 L 48.729980 384.335938 Z " fill="rgb(0, 0, 0)" fill-opacity="1.000000" />
<path d="M 48.892578 384.335938 L 48.892578 383.412109 L 51.878906 383.412109 L 51.878906 376.300781 L 52.738281 376.300781 L 52.738281 384.335938 Z " fill="rgb(0, 0, 0)" fill-opacity="1.000000" />
<path d="M 16.341797 360.108398 Q 17.711426 360.108398 18.253906 359.434326 Q 18.796387 358.760254 18.796387 356.998535 Q 18.796387 355.220703 18.256592 354.546631 Q 17.716797 353.872559 16.341797 353.872559 L 15.826172 353.872559 L 15.826172 360.108398 Z M 16.363281 352.980957 Q 18.200195 352.980957 19.070312 353.958496 Q 19.940430 354.936035 19.940430 356.998535 Q 19.940430 359.050293 19.070312 360.025146 Q 18.200195 361.000000 16.363281 361.000000 L 14.735840 361.000000 L 14.735840 352.980957 Z " fill="rgb(0, 0, 0)" fill-opacity="1.000000" />
<path d="M 22.450195 373.092285 L 24.136719 373.092285 L 24.136719 367.033691 L 22.117188 368.005859 L 22.117188 366.963867 L 24.125977 366.007812 L 25.210938 366.007812 L 25.210938 373.092285 L 26.875977 373.092285 L 26.875977 374.000000 L 22.450195 374.000000 Z " fill="rgb(0, 0, 0)" fill-opacity="1.000000" />
<path d="M 31.308594 365.862793 Q 32.592285 365.862793 33.250244 366.910156 Q 33.908203 367.957520 33.908203 370.009277 Q 33.908203 372.061035 33.250244 373.108398 Q 32.592285 374.155762 31.308594 374.155762 Q 30.024902 374.155762 29.369629 373.108398 Q 28.714355 372.061035 28.714355 370.009277 Q 28.714355 367.957520 29.369629 366.910156 Q 30.024902 365.862793 31.308594 365.862793 Z M 31.308594 373.296387 Q 32.071289 373.296387 32.444580 372.485352 Q 32.817871 371.674316 32.817871 370.009277 Q 32.817871 369.123047 32.710449 368.408691 L 30.153809 372.410156 Q 30.556641 373.296387 31.308594 373.296387 Z M 31.308594 366.722168 Q 30.551270 366.722168 30.177979 367.533203 Q 29.804688 368.344238 29.804688 370.009277 Q 29.804688 370.766602 29.906738 371.427246 L 32.409668 367.436523 Q 32.001465 366.722168 31.308594 366.722168 Z " fill="rgb(0, 0, 0)" fill-opacity="1.000000" />
<path d="M 51.878906 377.319336 L 51.878906 363.300781 L 52.738281 363.300781 L 52.738281 377.319336 Z " fill="rgb(0, 0, 0)" fill-opacity="1.000000" />
<path d="M 27.015625 357.498047 L 27.015625 357.981445 L 22.734863 357.981445 L 22.734863 358.013672 Q 22.691895 359.243652 23.204834 359.780762 Q 23.717773 360.317871 24.652344 360.317871 Q 25.125000 360.317871 25.640625 360.167480 Q 26.156250 360.017090 26.741699 359.710938 L 26.741699 360.693848 Q 26.177734 360.924805 25.654053 361.040283 Q 25.130371 361.155762 24.641602 361.155762 Q 23.239746 361.155762 22.450195 360.315186 Q 21.660645 359.474609 21.660645 357.997559 Q 21.660645 356.558105 22.434082 355.698730 Q 23.207520 354.839355 24.496582 354.839355 Q 25.645996 354.839355 26.309326 355.618164 Q 26.972656 356.396973 27.015625 357.498047 Z M 26.027344 357.208008 Q 25.962891 356.584961 25.573486 356.131104 Q 25.184082 355.677246 24.453613 355.677246 Q 23.739258 355.677246 23.277344 356.149902 Q 22.815430 356.622559 22.772461 357.213379 Z " fill="rgb(0, 0, 0)" fill-opacity="1.000000" />
<path d="M 33.645020 357.272461 L 33.645020 361.000000 L 32.651367 361.000000 L 32.651367 357.272461 Q 32.651367 356.461426 32.366699 356.080078 Q 32.082031 355.698730 31.475098 355.698730 Q 30.782227 355.698730 30.408936 356.190186 Q 30.035645 356.681641 30.035645 357.600098 L 30.035645 361.000000 L 29.047363 361.000000 L 29.047363 354.984375 L 30.035645 354.984375 L 30.035645 355.886719 Q 30.298828 355.371094 30.750000 355.105225 Q 31.201172 354.839355 31.818848 354.839355 Q 32.737305 354.839355 33.191162 355.443604 Q 33.645020 356.047852 33.645020 357.272461 Z " fill="rgb(0, 0, 0)" fill-opacity="1.000000" />
<path d="M 40.226074 355.193848 L 40.226074 356.160645 Q 39.801758 355.913574 39.372070 355.790039 Q 38.942383 355.666504 38.496582 355.666504 Q 37.825195 355.666504 37.494873 355.884033 Q 37.164551 356.101562 37.164551 356.547363 Q 37.164551 356.950195 37.411621 357.148926 Q 37.658691 357.347656 38.641602 357.535645 L 39.039062 357.610840 Q 39.774902 357.750488 40.153564 358.169434 Q 40.532227 358.588379 40.532227 359.259766 Q 40.532227 360.151367 39.898438 360.653564 Q 39.264648 361.155762 38.136719 361.155762 Q 37.690918 361.155762 37.202148 361.061768 Q 36.713379 360.967773 36.144043 360.779785 L 36.144043 359.759277 Q 36.697266 360.043945 37.202148 360.186279 Q 37.707031 360.328613 38.158203 360.328613 Q 38.813477 360.328613 39.173340 360.062744 Q 39.533203 359.796875 39.533203 359.318848 Q 39.533203 358.631348 38.217285 358.368164 L 38.174316 358.357422 L 37.803711 358.282227 Q 36.949707 358.115723 36.557617 357.720947 Q 36.165527 357.326172 36.165527 356.644043 Q 36.165527 355.779297 36.750977 355.309326 Q 37.336426 354.839355 38.421387 354.839355 Q 38.904785 354.839355 39.350586 354.927979 Q 39.796387 355.016602 40.226074 355.193848 Z " fill="rgb(0, 0, 0)" fill-opacity="1.000000" />
<path d="M 48.015625 357.498047 L 48.015625 357.981445 L 43.734863 357.981445 L 43.734863 358.013672 Q 43.691895 359.243652 44.204834 359.780762 Q 44.717773 360.317871 45.652344 360.317871 Q 46.125000 360.317871 46.640625 360.167480 Q 47.156250 360.017090 47.741699 359.710938 L 47.741699 360.693848 Q 47.177734 360.924805 46.654053 361.040283 Q 46.130371 361.155762 45.641602 361.155762 Q 44.239746 361.155762 43.450195 360.315186 Q 42.660645 359.474609 42.660645 357.997559 Q 42.660645 356.558105 43.434082 355.698730 Q 44.207520 354.839355 45.496582 354.839355 Q 46.645996 354.839355 47.309326 355.618164 Q 47.972656 356.396973 48.015625 357.498047 Z M 47.027344 357.208008 Q 46.962891 356.584961 46.573486 356.131104 Q 46.184082 355.677246 45.453613 355.677246 Q 44.739258 355.677246 44.277344 356.149902 Q 43.815430 356.622559 43.772461 357.213379 Z " fill="rgb(0, 0, 0)" fill-opacity="1.000000" />
<path d="M 51.878906 364.319336 L 51.878906 350.300781 L 52.738281 350.300781 L 52.738281 364.319336 Z " fill="rgb(0, 0, 0)" fill-opacity="1.000000" />
<path d="M 13.892578 345.335938 L 13.892578 344.412109 L 20.729980 344.412109 L 20.729980 345.335938 Z " fill="rgb(0, 0, 0)" fill-opacity="1.000000" />
<path d="M 20.892578 345.335938 L 20.892578 344.412109 L 27.729980 344.412109 L 27.729980 345.335938 Z " fill="rgb(0, 0, 0)" fill-opacity="1.000000" />
<path d="M 27.892578 345.335938 L 27.892578 344.412109 L 34.729980 344.412109 L 34.729980 345.335938 Z " fill="rgb(0, 0, 0)" fill-opacity="1.000000" />
<path d="M 34.892578 345.335938 L 34.892578 344.412109 L 41.729980 344.412109 L 41.729980 345.335938 Z " fill="rgb(0, 0, 0)" fill-opacity="1.000000" />
<path d="M 41.892578 345.335938 L 41.892578 344.412109 L 48.729980 344.412109 L 48.729980 345.335938 Z " fill="rgb(0, 0, 0)" fill-opacity="1.000000" />
<path d="M 51.878906 351.319336 L 51.878906 345.335938 L 48.892578 345.335938 L 48.892578 344.412109 L 52.738281 344.412109 L 52.738281 351.319336 Z " fill="rgb(0, 0, 0)" fill-opacity="1.000000" />
<path d="M 30.878906 325.319336 L 30.878906 311.300781 L 31.738281 311.300781 L 31.738281 325.319336 Z " fill="rgb(0, 0, 0)" fill-opacity="1.000000" />
<path d="M 31.308594 335.418945 L 28.032227 328.866211 L 34.590332 328.866211 Z " fill="rgb(0, 0, 0)" fill-opacity="1.000000" />
<path d="M 6.892578 306.335938 L 6.892578 305.412109 L 13.729980 305.412109 L 13.729980 306.335938 Z " fill="rgb(0, 0, 0)" fill-opacity="1.000000" />
<path d="M 13.892578 306.335938 L 13.892578 305.412109 L 20.729980 305.412109 L 20.729980 306.335938 Z " fill="rgb(0, 0, 0)" fill-opacity="1.000000" />
<path d="M 20.892578 306.335938 L 20.892578 305.412109 L 27.729980 305.412109 L 27.729980 306.335938 Z " fill="rgb(0, 0, 0)" fill-opacity="1.000000" />
<path d="M 27.892578 306.335938 L 27.892578 305.412109 L 34.729980 305.412109 L 34.729980 306.335938 Z " fill="rgb(0, 0, 0)" fill-opacity="1.000000" />
<path d="M 34.892578 306.335938 L 34.892578 305.412109 L 41.729980 305.412109 L 41.729980 306.335938 Z " fill="rgb(0, 0, 0)" fill-opacity="1.000000" />
<path d="M 41.892578 306.335938 L 41.892578 305.412109 L 48.729980 305.412109 L 48.729980 306.335938 Z " fill="rgb(0, 0, 0)" fill-opacity="1.000000" />
<path d="M 48.892578 306.335938 L 48.892578 305.412109 L 51.878906 305.412109 L 51.878906 298.300781 L 52.738281 298.300781 L 52.738281 306.335938 Z " fill="rgb(0, 0, 0)" fill-opacity="1.000000" />
<path d="M 9.341797 295.108398 Q 10.711426 295.108398 11.253906 294.434326 Q 11.796387 293.760254 11.796387 291.998535 Q 11.796387 290.220703 11.256592 289.546631 Q 10.716797 288.872559 9.341797 288.872559 L 8.826172 288.872559 L 8.826172 295.108398 Z M 9.363281 287.980957 Q 11.200195 287.980957 12.070312 288.958496 Q 12.940430 289.936035 12.940430 291.998535 Q 12.940430 294.050293 12.070312 295.025146 Q 11.200195 296.000000 9.363281 296.000000 L 7.735840 296.000000 L 7.735840 287.980957 Z " fill="rgb(0, 0, 0)" fill-opacity="1.000000" />
<path d="M 20.015625 292.498047 L 20.015625 292.981445 L 15.734863 292.981445 L 15.734863 293.013672 Q 15.691895 294.243652 16.204834 294.780762 Q 16.717773 295.317871 17.652344 295.317871 Q 18.125000 295.317871 18.640625 295.167480 Q 19.156250 295.017090 19.741699 294.710938 L 19.741699 295.693848 Q 19.177734 295.924805 18.654053 296.040283 Q 18.130371 296.155762 17.641602 296.155762 Q 16.239746 296.155762 15.450195 295.315186 Q 14.660645 294.474609 14.660645 292.997559 Q 14.660645 291.558105 15.434082 290.698730 Q 16.207520 289.839355 17.496582 289.839355 Q 18.645996 289.839355 19.309326 290.618164 Q 19.972656 291.396973 20.015625 292.498047 Z M 19.027344 292.208008 Q 18.962891 291.584961 18.573486 291.131104 Q 18.184082 290.677246 17.453613 290.677246 Q 16.739258 290.677246 16.277344 291.149902 Q 15.815430 291.622559 15.772461 292.213379 Z " fill="rgb(0, 0, 0)" fill-opacity="1.000000" />
<path d="M 26.645020 292.272461 L 26.645020 296.000000 L 25.651367 296.000000 L 25.651367 292.272461 Q 25.651367 291.461426 25.366699 291.080078 Q 25.082031 290.698730 24.475098 290.698730 Q 23.782227 290.698730 23.408936 291.190186 Q 23.035645 291.681641 23.035645 292.600098 L 23.035645 296.000000 L 22.047363 296.000000 L 22.047363 289.984375 L 23.035645 289.984375 L 23.035645 290.886719 Q 23.298828 290.371094 23.750000 290.105225 Q 24.201172 289.839355 24.818848 289.839355 Q 25.737305 289.839355 26.191162 290.443604 Q 26.645020 291.047852 26.645020 292.272461 Z " fill="rgb(0, 0, 0)" fill-opacity="1.000000" />
<path d="M 33.226074 290.193848 L 33.226074 291.160645 Q 32.801758 290.913574 32.372070 290.790039 Q 31.942383 290.666504 31.496582 290.666504 Q 30.825195 290.666504 30.494873 290.884033 Q 30.164551 291.101562 30.164551 291.547363 Q 30.164551 291.950195 30.411621 292.148926 Q 30.658691 292.347656 31.641602 292.535645 L 32.039062 292.610840 Q 32.774902 292.750488 33.153564 293.169434 Q 33.532227 293.588379 33.532227 294.259766 Q 33.532227 295.151367 32.898438 295.653564 Q 32.264648 296.155762 31.136719 296.155762 Q 30.690918 296.155762 30.202148 296.061768 Q 29.713379 295.967773 29.144043 295.779785 L 29.144043 294.759277 Q 29.697266 295.043945 30.202148 295.186279 Q 30.707031 295.328613 31.158203 295.328613 Q 31.813477 295.328613 32.173340 295.062744 Q 32.533203 294.796875 32.533203 294.318848 Q 32.533203 293.631348 31.217285 293.368164 L 31.174316 293.357422 L 30.803711 293.282227 Q 29.949707 293.115723 29.557617 292.720947 Q 29.165527 292.326172 29.165527 291.644043 Q 29.165527 290.779297 29.750977 290.309326 Q 30.336426 289.839355 31.421387 289.839355 Q 31.904785 289.839355 32.350586 289.927979 Q 32.796387 290.016602 33.226074 290.193848 Z " fill="rgb(0, 0, 0)" fill-opacity="1.000000" />
<path d="M 41.015625 292.498047 L 41.015625 292.981445 L 36.734863 292.981445 L 36.734863 293.013672 Q 36.691895 294.243652 37.204834 294.780762 Q 37.717773 295.317871 38.652344 295.317871 Q 39.125000 295.317871 39.640625 295.167480 Q 40.156250 295.017090 40.741699 294.710938 L 40.741699 295.693848 Q 40.177734 295.924805 39.654053 296.040283 Q 39.130371 296.155762 38.641602 296.155762 Q 37.239746 296.155762 36.450195 295.315186 Q 35.660645 294.474609 35.660645 292.997559 Q 35.660645 291.558105 36.434082 290.698730 Q 37.207520 289.839355 38.496582 289.839355 Q 39.645996 289.839355 40.309326 290.618164 Q 40.972656 291.396973 41.015625 292.498047 Z M 40.027344 292.208008 Q 39.962891 291.584961 39.573486 291.131104 Q 39.184082 290.677246 38.453613 290.677246 Q 37.739258 290.677246 37.277344 291.149902 Q 36.815430 291.622559 36.772461 292.213379 Z " fill="rgb(0, 0, 0)" fill-opacity="1.000000" />
<path d="M 51.878906 299.319336 L 51.878906 285.300781 L 52.738281 285.300781 L 52.738281 299.319336 Z " fill="rgb(0, 0, 0)" fill-opacity="1.000000" />
<path d="M 6.892578 280.335938 L 6.892578 279.412109 L 13.729980 279.412109 L 13.729980 280.335938 Z " fill="rgb(0, 0, 0)" fill-opacity="1.000000" />
<path d="M 13.892578 280.335938 L 13.892578 279.412109 L 20.729980 279.412109 L 20.729980 280.335938 Z " fill="rgb(0, 0, 0)" fill-opacity="1.000000" />
<path d="M 20.892578 280.335938 L 20.892578 279.412109 L 27.729980 279.412109 L 27.729980 280.335938 Z " fill="rgb(0, 0, 0)" fill-opacity="1.000000" />
<path d="M 27.892578 280.335938 L 27.892578 279.412109 L 34.729980 279.412109 L 34.729980 280.335938 Z " fill="rgb(0, 0, 0)" fill-opacity="1.000000" />
<path d="M 34.892578 280.335938 L 34.892578 279.412109 L 41.729980 279.412109 L 41.729980 280.335938 Z " fill="rgb(0, 0, 0)" fill-opacity="1.000000" />
<path d="M 41.892578 280.335938 L 41.892578 279.412109 L 48.729980 279.412109 L 48.729980 280.335938 Z " fill="rgb(0, 0, 0)" fill-opacity="1.000000" />
<path d="M 51.878906 286.319336 L 51.878906 280.335938 L 48.892578 280.335938 L 48.892578 279.412109 L 52.738281 279.412109 L 52.738281 286.319336 Z " fill="rgb(0, 0, 0)" fill-opacity="1.000000" />
<path d="M 30.878906 260.319336 L 30.878906 246.300781 L 31.738281 246.300781 L 31.738281 260.319336 Z " fill="rgb(0, 0, 0)" fill-opacity="1.000000" />
<path d="M 31.308594 270.418945 L 28.032227 263.866211 L 34.590332 263.866211 Z " fill="rgb(0, 0, 0)" fill-opacity="1.000000" />
<path d="M 6.892578 241.335938 L 6.892578 240.412109 L 13.729980 240.412109 L 13.729980 241.335938 Z " fill="rgb(0, 0, 0)" fill-opacity="1.000000" />
<path d="M 13.892578 241.335938 L 13.892578 240.412109 L 20.729980 240.412109 L 20.729980 241.335938 Z " fill="rgb(0, 0, 0)" fill-opacity="1.000000" />
<path d="M 20.892578 241.335938 L 20.892578 240.412109 L 27.729980 240.412109 L 27.729980 241.335938 Z " fill="rgb(0, 0, 0)" fill-opacity="1.000000" />
<path d="M 27.892578 241.335938 L 27.892578 240.412109 L 34.729980 240.412109 L 34.729980 241.335938 Z " fill="rgb(0, 0, 0)" fill-opacity="1.000000" />
<path d="M 34.892578 241.335938 L 34.892578 240.412109 L 41.729980 240.412109 L 41.729980 241.335938 Z " fill="rgb(0, 0, 0)" fill-opacity="1.000000" />
<path d="M 41.892578 241.335938 L 41.892578 240.412109 L 48.729980 240.412109 L 48.729980 241.335938 Z " fill="rgb(0, 0, 0)" fill-opacity="1.000000" />
<path d="M 48.892578 241.335938 L 48.892578 240.412109 L 55.729980 240.412109 L 55.729980 241.335938 Z " fill="rgb(0, 0, 0)" fill-opacity="1.000000" />
<path d="M 55.892578 241.335938 L 55.892578 240.412109 L 58.878906 240.412109 L 58.878906 233.300781 L 59.738281 233.300781 L 59.738281 241.335938 Z " fill="rgb(0, 0, 0)" fill-opacity="1.000000" />
<path d="M 71.670410 243.978516 Q 70.032227 243.033203 70.032227 241.142578 Q 70.032227 239.251953 71.670410 238.306641 Q 72.486816 237.833984 73.308594 237.833984 Q 74.125000 237.833984 74.946777 238.306641 Q 76.590332 239.251953 76.590332 241.142578 Q 76.590332 243.033203 74.946777 243.978516 Q 74.125000 244.451172 73.308594 244.451172 Q 72.486816 244.451172 71.670410 243.978516 Z " fill="rgb(0, 0, 0)" fill-opacity="1.000000" />
<path d="M 7.193359 223.007812 L 8.643555 223.007812 L 10.029297 227.079102 L 11.425781 223.007812 L 12.881348 223.007812 L 12.881348 231.000000 L 11.876953 231.000000 L 11.876953 223.937012 L 10.448242 228.147949 L 9.626465 228.147949 L 8.192383 223.937012 L 8.192383 231.000000 L 7.193359 231.000000 Z " fill="rgb(0, 0, 0)" fill-opacity="1.000000" />
<path d="M 17.770508 227.976074 L 17.442871 227.976074 Q 16.578125 227.976074 16.140381 228.279541 Q 15.702637 228.583008 15.702637 229.184570 Q 15.702637 229.727051 16.030273 230.027832 Q 16.357910 230.328613 16.937988 230.328613 Q 17.754395 230.328613 18.221680 229.761963 Q 18.688965 229.195312 18.694336 228.196289 L 18.694336 227.976074 Z M 19.687988 227.567871 L 19.687988 231.000000 L 18.694336 231.000000 L 18.694336 230.108398 Q 18.377441 230.645508 17.896729 230.900635 Q 17.416016 231.155762 16.728516 231.155762 Q 15.810059 231.155762 15.262207 230.637451 Q 14.714355 230.119141 14.714355 229.249023 Q 14.714355 228.244629 15.388428 227.723633 Q 16.062500 227.202637 17.367676 227.202637 L 18.694336 227.202637 L 18.694336 227.046875 Q 18.688965 226.327148 18.329102 226.002197 Q 17.969238 225.677246 17.179688 225.677246 Q 16.674805 225.677246 16.159180 225.822266 Q 15.643555 225.967285 15.154785 226.246582 L 15.154785 225.258301 Q 15.702637 225.048828 16.204834 224.944092 Q 16.707031 224.839355 17.179688 224.839355 Q 17.926270 224.839355 18.455322 225.059570 Q 18.984375 225.279785 19.312012 225.720215 Q 19.516113 225.988770 19.602051 226.383545 Q 19.687988 226.778320 19.687988 227.567871 Z " fill="rgb(0, 0, 0)" fill-opacity="1.000000" />
<path d="M 27.004883 224.984375 L 24.851074 227.863281 L 27.214355 231.000000 L 26.070312 231.000000 L 24.308594 228.588379 L 22.552246 231.000000 L 21.408203 231.000000 L 23.771484 227.863281 L 21.617676 224.984375 L 22.713379 224.984375 L 24.308594 227.159668 L 25.893066 224.984375 Z " fill="rgb(0, 0, 0)" fill-opacity="1.000000" />
<path d="M 30.143066 223.872559 L 30.143066 226.885742 L 31.399902 226.885742 Q 32.151855 226.885742 32.573486 226.488281 Q 32.995117 226.090820 32.995117 225.376465 Q 32.995117 224.662109 32.576172 224.267334 Q 32.157227 223.872559 31.399902 223.872559 Z M 29.058105 222.980957 L 31.399902 222.980957 Q 32.742676 222.980957 33.435547 223.590576 Q 34.128418 224.200195 34.128418 225.376465 Q 34.128418 226.563477 33.438232 227.170410 Q 32.748047 227.777344 31.399902 227.777344 L 30.143066 227.777344 L 30.143066 231.000000 L 29.058105 231.000000 Z " fill="rgb(0, 0, 0)" fill-opacity="1.000000" />
<path d="M 38.308594 225.677246 Q 37.556641 225.677246 37.169922 226.262695 Q 36.783203 226.848145 36.783203 227.997559 Q 36.783203 229.141602 37.169922 229.729736 Q 37.556641 230.317871 38.308594 230.317871 Q 39.065918 230.317871 39.452637 229.729736 Q 39.839355 229.141602 39.839355 227.997559 Q 39.839355 226.848145 39.452637 226.262695 Q 39.065918 225.677246 38.308594 225.677246 Z M 38.308594 224.839355 Q 39.560059 224.839355 40.223389 225.650391 Q 40.886719 226.461426 40.886719 227.997559 Q 40.886719 229.539062 40.226074 230.347412 Q 39.565430 231.155762 38.308594 231.155762 Q 37.057129 231.155762 36.396484 230.347412 Q 35.735840 229.539062 35.735840 227.997559 Q 35.735840 226.461426 36.396484 225.650391 Q 37.057129 224.839355 38.308594 224.839355 Z " fill="rgb(0, 0, 0)" fill-opacity="1.000000" />
<path d="M 45.308594 225.677246 Q 44.556641 225.677246 44.169922 226.262695 Q 43.783203 226.848145 43.783203 227.997559 Q 43.783203 229.141602 44.169922 229.729736 Q 44.556641 230.317871 45.308594 230.317871 Q 46.065918 230.317871 46.452637 229.729736 Q 46.839355 229.141602 46.839355 227.997559 Q 46.839355 226.848145 46.452637 226.262695 Q 46.065918 225.677246 45.308594 225.677246 Z M 45.308594 224.839355 Q 46.560059 224.839355 47.223389 225.650391 Q 47.886719 226.461426 47.886719 227.997559 Q 47.886719 229.539062 47.226074 230.347412 Q 46.565430 231.155762 45.308594 231.155762 Q 44.057129 231.155762 43.396484 230.347412 Q 42.735840 229.539062 42.735840 227.997559 Q 42.735840 226.461426 43.396484 225.650391 Q 44.057129 224.839355 45.308594 224.839355 Z " fill="rgb(0, 0, 0)" fill-opacity="1.000000" />
<path d="M 52.861816 228.824707 Q 52.861816 229.490723 53.106201 229.829102 Q 53.350586 230.167480 53.828613 230.167480 L 54.983398 230.167480 L 54.983398 231.000000 L 53.731934 231.000000 Q 52.845703 231.000000 52.359619 230.433350 Q 51.873535 229.866699 51.873535 228.824707 L 51.873535 223.383789 L 50.289062 223.383789 L 50.289062 222.610352 L 52.861816 222.610352 Z " fill="rgb(0, 0, 0)" fill-opacity="1.000000" />
<path d="M 58.878906 234.319336 L 58.878906 220.300781 L 59.738281 220.300781 L 59.738281 234.319336 Z " fill="rgb(0, 0, 0)" fill-opacity="1.000000" />
<path d="M 72.878906 234.319336 L 72.878906 220.300781 L 73.738281 220.300781 L 73.738281 234.319336 Z " fill="rgb(0, 0, 0)" fill-opacity="1.000000" />
<path d="M 6.892578 215.335938 L 6.892578 214.412109 L 13.729980 214.412109 L 13.729980 215.335938 Z " fill="rgb(0, 0, 0)" fill-opacity="1.000000" />
<path d="M 13.892578 215.335938 L 13.892578 214.412109 L 20.729980 214.412109 L 20.729980 215.335938 Z " fill="rgb(0, 0, 0)" fill-opacity="1.000000" />
<path d="M 20.892578 215.335938 L 20.892578 214.412109 L 27.729980 214.412109 L 27.729980 215.335938 Z " fill="rgb(0, 0, 0)" fill-opacity="1.000000" />
<path d="M 27.892578 215.335938 L 27.892578 214.412109 L 34.729980 214.412109 L 34.729980 215.335938 Z " fill="rgb(0, 0, 0)" fill-opacity="1.000000" />
<path d="M 34.892578 215.335938 L 34.892578 214.412109 L 41.729980 214.412109 L 41.729980 215.335938 Z " fill="rgb(0, 0, 0)" fill-opacity="1.000000" />
<path d="M 41.892578 215.335938 L 41.892578 214.412109 L 48.729980 214.412109 L 48.729980 215.335938 Z " fill="rgb(0, 0, 0)" fill-opacity="1.000000" />
<path d="M 48.892578 215.335938 L 48.892578 214.412109 L 55.729980 214.412109 L 55.729980 215.335938 Z " fill="rgb(0, 0, 0)" fill-opacity="1.000000" />
<path d="M 58.878906 221.319336 L 58.878906 215.335938 L 55.892578 215.335938 L 55.892578 214.412109 L 59.738281 214.412109 L 59.738281 221.319336 Z " fill="rgb(0, 0, 0)" fill-opacity="1.000000" />
<path d="M 72.878906 221.319336 L 72.878906 207.300781 L 73.738281 207.300781 L 73.738281 221.319336 Z " fill="rgb(0, 0, 0)" fill-opacity="1.000000" />
<path d="M 9.878906 91.319336 L 9.878906 84.412109 L 13.729980 84.412109 L 13.729980 85.335938 L 10.738281 85.335938 L 10.738281 91.319336 Z " fill="rgb(0, 0, 0)" fill-opacity="1.000000" />
<path d="M 9.878906 104.319336 L 9.878906 90.300781 L 10.738281 90.300781 L 10.738281 104.319336 Z " fill="rgb(0, 0, 0)" fill-opacity="1.000000" />
<path d="M 9.878906 111.335938 L 9.878906 103.300781 L 10.738281 103.300781 L 10.738281 110.412109 L 13.729980 110.412109 L 13.729980 111.335938 Z " fill="rgb(0, 0, 0)" fill-opacity="1.000000" />
<path d="M 9.878906 156.319336 L 9.878906 149.412109 L 13.729980 149.412109 L 13.729980 150.335938 L 10.738281 150.335938 L 10.738281 156.319336 Z " fill="rgb(0, 0, 0)" fill-opacity="1.000000" />
<path d="M 9.878906 169.319336 L 9.878906 155.300781 L 10.738281 155.300781 L 10.738281 169.319336 Z " fill="rgb(0, 0, 0)" fill-opacity="1.000000" />
<path d="M 9.878906 176.335938 L 9.878906 168.300781 L 10.738281 168.300781 L 10.738281 175.412109 L 13.729980 175.412109 L 13.729980 176.335938 Z " fill="rgb(0, 0, 0)" fill-opacity="1.000000" />
<path d="M 30.878906 195.319336 L 30.878906 181.300781 L 31.738281 181.300781 L 31.738281 195.319336 Z " fill="rgb(0, 0, 0)" fill-opacity="1.000000" />
<path d="M 31.308594 205.418945 L 28.032227 198.866211 L 34.590332 198.866211 Z " fill="rgb(0, 0, 0)" fill-opacity="1.000000" />
<path d="M 72.878906 208.319336 L 72.878906 194.300781 L 73.738281 194.300781 L 73.738281 208.319336 Z " fill="rgb(0, 0, 0)" fill-opacity="1.000000" />
<path d="M 72.878906 195.319336 L 72.878906 181.300781 L 73.738281 181.300781 L 73.738281 195.319336 Z " fill="rgb(0, 0, 0)" fill-opacity="1.000000" />
<path d="M 13.892578 176.335938 L 13.892578 175.412109 L 20.729980 175.412109 L 20.729980 176.335938 Z " fill="rgb(0, 0, 0)" fill-opacity="1.000000" />
<path d="M 20.892578 176.335938 L 20.892578 175.412109 L 27.729980 175.412109 L 27.729980 176.335938 Z " fill="rgb(0, 0, 0)" fill-opacity="1.000000" />
<path d="M 27.892578 176.335938 L 27.892578 175.412109 L 34.729980 175.412109 L 34.729980 176.335938 Z " fill="rgb(0, 0, 0)" fill-opacity="1.000000" />
<path d="M 34.892578 176.335938 L 34.892578 175.412109 L 41.729980 175.412109 L 41.729980 176.335938 Z " fill="rgb(0, 0, 0)" fill-opacity="1.000000" />
<path d="M 41.892578 176.335938 L 41.892578 175.412109 L 44.878906 175.412109 L 44.878906 168.300781 L 45.738281 168.300781 L 45.738281 176.335938 Z " fill="rgb(0, 0, 0)" fill-opacity="1.000000" />
<path d="M 72.878906 182.319336 L 72.878906 168.300781 L 73.738281 168.300781 L 73.738281 182.319336 Z " fill="rgb(0, 0, 0)" fill-opacity="1.000000" />
<path d="M 19.763184 165.715332 Q 19.349609 165.935547 18.914551 166.045654 Q 18.479492 166.155762 17.990723 166.155762 Q 16.449219 166.155762 15.597900 165.065430 Q 14.746582 163.975098 14.746582 161.998535 Q 14.746582 160.032715 15.603271 158.934326 Q 16.459961 157.835938 17.990723 157.835938 Q 18.479492 157.835938 18.914551 157.946045 Q 19.349609 158.056152 19.763184 158.276367 L 19.763184 159.388184 Q 19.365723 159.060547 18.909180 158.888672 Q 18.452637 158.716797 17.990723 158.716797 Q 16.932617 158.716797 16.406250 159.533203 Q 15.879883 160.349609 15.879883 161.998535 Q 15.879883 163.642090 16.406250 164.458496 Q 16.932617 165.274902 17.990723 165.274902 Q 18.463379 165.274902 18.917236 165.103027 Q 19.371094 164.931152 19.763184 164.603516 Z " fill="rgb(0, 0, 0)" fill-opacity="1.000000" />
<path d="M 24.308594 160.677246 Q 23.556641 160.677246 23.169922 161.262695 Q 22.783203 161.848145 22.783203 162.997559 Q 22.783203 164.141602 23.169922 164.729736 Q 23.556641 165.317871 24.308594 165.317871 Q 25.065918 165.317871 25.452637 164.729736 Q 25.839355 164.141602 25.839355 162.997559 Q 25.839355 161.848145 25.452637 161.262695 Q 25.065918 160.677246 24.308594 160.677246 Z M 24.308594 159.839355 Q 25.560059 159.839355 26.223389 160.650391 Q 26.886719 161.461426 26.886719 162.997559 Q 26.886719 164.539062 26.226074 165.347412 Q 25.565430 166.155762 24.308594 166.155762 Q 23.057129 166.155762 22.396484 165.347412 Q 21.735840 164.539062 21.735840 162.997559 Q 21.735840 161.461426 22.396484 160.650391 Q 23.057129 159.839355 24.308594 159.839355 Z " fill="rgb(0, 0, 0)" fill-opacity="1.000000" />
<path d="M 33.645020 162.272461 L 33.645020 166.000000 L 32.651367 166.000000 L 32.651367 162.272461 Q 32.651367 161.461426 32.366699 161.080078 Q 32.082031 160.698730 31.475098 160.698730 Q 30.782227 160.698730 30.408936 161.190186 Q 30.035645 161.681641 30.035645 162.600098 L 30.035645 166.000000 L 29.047363 166.000000 L 29.047363 159.984375 L 30.035645 159.984375 L 30.035645 160.886719 Q 30.298828 160.371094 30.750000 160.105225 Q 31.201172 159.839355 31.818848 159.839355 Q 32.737305 159.839355 33.191162 160.443604 Q 33.645020 161.047852 33.645020 162.272461 Z " fill="rgb(0, 0, 0)" fill-opacity="1.000000" />
<path d="M 35.537109 159.984375 L 36.562988 159.984375 L 38.308594 165.033203 L 40.059570 159.984375 L 41.085449 159.984375 L 38.947754 166.000000 L 37.674805 166.000000 Z " fill="rgb(0, 0, 0)" fill-opacity="1.000000" />
<path d="M 44.878906 169.319336 L 44.878906 155.300781 L 45.738281 155.300781 L 45.738281 169.319336 Z " fill="rgb(0, 0, 0)" fill-opacity="1.000000" />
<path d="M 72.878906 169.319336 L 72.878906 155.300781 L 73.738281 155.300781 L 73.738281 169.319336 Z " fill="rgb(0, 0, 0)" fill-opacity="1.000000" />
<path d="M 13.892578 150.335938 L 13.892578 149.412109 L 20.729980 149.412109 L 20.729980 150.335938 Z " fill="rgb(0, 0, 0)" fill-opacity="1.000000" />
<path d="M 20.892578 150.335938 L 20.892578 149.412109 L 27.729980 149.412109 L 27.729980 150.335938 Z " fill="rgb(0, 0, 0)" fill-opacity="1.000000" />
<path d="M 27.892578 150.335938 L 27.892578 149.412109 L 34.729980 149.412109 L 34.729980 150.335938 Z " fill="rgb(0, 0, 0)" fill-opacity="1.000000" />
<path d="M 34.892578 150.335938 L 34.892578 149.412109 L 41.729980 149.412109 L 41.729980 150.335938 Z " fill="rgb(0, 0, 0)" fill-opacity="1.000000" />
<path d="M 44.878906 156.319336 L 44.878906 150.335938 L 41.892578 150.335938 L 41.892578 149.412109 L 45.738281 149.412109 L 45.738281 156.319336 Z " fill="rgb(0, 0, 0)" fill-opacity="1.000000" />
<path d="M 69.004883 146.984375 L 66.851074 149.863281 L 69.214355 153.000000 L 68.070312 153.000000 L 66.308594 150.588379 L 64.552246 153.000000 L 63.408203 153.000000 L 65.771484 149.863281 L 63.617676 146.984375 L 64.713379 146.984375 L 66.308594 149.159668 L 67.893066 146.984375 Z " fill="rgb(0, 0, 0)" fill-opacity="1.000000" />
<path d="M 72.003418 152.086914 L 75.687988 152.086914 L 75.687988 153.000000 L 70.816406 153.000000 L 70.816406 152.086914 Q 71.820801 151.028809 72.572754 150.217773 Q 73.324707 149.406738 73.609375 149.073730 Q 74.146484 148.418457 74.334473 148.012939 Q 74.522461 147.607422 74.522461 147.183105 Q 74.522461 146.511719 74.127686 146.130371 Q 73.732910 145.749023 73.045410 145.749023 Q 72.556641 145.749023 72.019531 145.926270 Q 71.482422 146.103516 70.880859 146.463379 L 70.880859 145.367676 Q 71.434082 145.104492 71.968506 144.970215 Q 72.502930 144.835938 73.023926 144.835938 Q 74.200195 144.835938 74.917236 145.461670 Q 75.634277 146.087402 75.634277 147.102539 Q 75.634277 147.618164 75.395264 148.133789 Q 75.156250 148.649414 74.619141 149.272461 Q 74.318359 149.621582 73.746338 150.239258 Q 73.174316 150.856934 72.003418 152.086914 Z " fill="rgb(0, 0, 0)" fill-opacity="1.000000" />
<path d="M 30.878906 130.319336 L 30.878906 116.300781 L 31.738281 116.300781 L 31.738281 130.319336 Z " fill="rgb(0, 0, 0)" fill-opacity="1.000000" />
<path d="M 31.308594 140.418945 L 28.032227 133.866211 L 34.590332 133.866211 Z " fill="rgb(0, 0, 0)" fill-opacity="1.000000" />
<path d="M 72.878906 143.319336 L 72.878906 129.300781 L 73.738281 129.300781 L 73.738281 143.319336 Z " fill="rgb(0, 0, 0)" fill-opacity="1.000000" />
<path d="M 72.878906 130.319336 L 72.878906 116.300781 L 73.738281 116.300781 L 73.738281 130.319336 Z " fill="rgb(0, 0, 0)" fill-opacity="1.000000" />
<path d="M 13.892578 111.335938 L 13.892578 110.412109 L 20.729980 110.412109 L 20.729980 111.335938 Z " fill="rgb(0, 0, 0)" fill-opacity="1.000000" />
<path d="M 20.892578 111.335938 L 20.892578 110.412109 L 27.729980 110.412109 L 27.729980 111.335938 Z " fill="rgb(0, 0, 0)" fill-opacity="1.000000" />
<path d="M 27.892578 111.335938 L 27.892578 110.412109 L 34.729980 110.412109 L 34.729980 111.335938 Z " fill="rgb(0, 0, 0)" fill-opacity="1.000000" />
<path d="M 34.892578 111.335938 L 34.892578 110.412109 L 41.729980 110.412109 L 41.729980 111.335938 Z " fill="rgb(0, 0, 0)" fill-opacity="1.000000" />
<path d="M 41.892578 111.335938 L 41.892578 110.412109 L 44.878906 110.412109 L 44.878906 103.300781 L 45.738281 103.300781 L 45.738281 111.335938 Z " fill="rgb(0, 0, 0)" fill-opacity="1.000000" />
<path d="M 72.878906 117.319336 L 72.878906 103.300781 L 73.738281 103.300781 L 73.738281 117.319336 Z " fill="rgb(0, 0, 0)" fill-opacity="1.000000" />
<path d="M 19.763184 100.715332 Q 19.349609 100.935547 18.914551 101.045654 Q 18.479492 101.155762 17.990723 101.155762 Q 16.449219 101.155762 15.597900 100.065430 Q 14.746582 98.975098 14.746582 96.998535 Q 14.746582 95.032715 15.603271 93.934326 Q 16.459961 92.835938 17.990723 92.835938 Q 18.479492 92.835938 18.914551 92.946045 Q 19.349609 93.056152 19.763184 93.276367 L 19.763184 94.388184 Q 19.365723 94.060547 18.909180 93.888672 Q 18.452637 93.716797 17.990723 93.716797 Q 16.932617 93.716797 16.406250 94.533203 Q 15.879883 95.349609 15.879883 96.998535 Q 15.879883 98.642090 16.406250 99.458496 Q 16.932617 100.274902 17.990723 100.274902 Q 18.463379 100.274902 18.917236 100.103027 Q 19.371094 99.931152 19.763184 99.603516 Z " fill="rgb(0, 0, 0)" fill-opacity="1.000000" />
<path d="M 24.308594 95.677246 Q 23.556641 95.677246 23.169922 96.262695 Q 22.783203 96.848145 22.783203 97.997559 Q 22.783203 99.141602 23.169922 99.729736 Q 23.556641 100.317871 24.308594 100.317871 Q 25.065918 100.317871 25.452637 99.729736 Q 25.839355 99.141602 25.839355 97.997559 Q 25.839355 96.848145 25.452637 96.262695 Q 25.065918 95.677246 24.308594 95.677246 Z M 24.308594 94.839355 Q 25.560059 94.839355 26.223389 95.650391 Q 26.886719 96.461426 26.886719 97.997559 Q 26.886719 99.539062 26.226074 100.347412 Q 25.565430 101.155762 24.308594 101.155762 Q 23.057129 101.155762 22.396484 100.347412 Q 21.735840 99.539062 21.735840 97.997559 Q 21.735840 96.461426 22.396484 95.650391 Q 23.057129 94.839355 24.308594 94.839355 Z " fill="rgb(0, 0, 0)" fill-opacity="1.000000" />
<path d="M 33.645020 97.272461 L 33.645020 101.000000 L 32.651367 101.000000 L 32.651367 97.272461 Q 32.651367 96.461426 32.366699 96.080078 Q 32.082031 95.698730 31.475098 95.698730 Q 30.782227 95.698730 30.408936 96.190186 Q 30.035645 96.681641 30.035645 97.600098 L 30.035645 101.000000 L 29.047363 101.000000 L 29.047363 94.984375 L 30.035645 94.984375 L 30.035645 95.886719 Q 30.298828 95.371094 30.750000 95.105225 Q 31.201172 94.839355 31.818848 94.839355 Q 32.737305 94.839355 33.191162 95.443604 Q 33.645020 96.047852 33.645020 97.272461 Z " fill="rgb(0, 0, 0)" fill-opacity="1.000000" />
<path d="M 35.537109 94.984375 L 36.562988 94.984375 L 38.308594 100.033203 L 40.059570 94.984375 L 41.085449 94.984375 L 38.947754 101.000000 L 37.674805 101.000000 Z " fill="rgb(0, 0, 0)" fill-opacity="1.000000" />
<path d="M 44.878906 104.319336 L 44.878906 90.300781 L 45.738281 90.300781 L 45.738281 104.319336 Z " fill="rgb(0, 0, 0)" fill-opacity="1.000000" />
<path d="M 72.878906 104.319336 L 72.878906 90.300781 L 73.738281 90.300781 L 73.738281 104.319336 Z " fill="rgb(0, 0, 0)" fill-opacity="1.000000" />
<path d="M 13.892578 85.335938 L 13.892578 84.412109 L 20.729980 84.412109 L 20.729980 85.335938 Z " fill="rgb(0, 0, 0)" fill-opacity="1.000000" />
<path d="M 20.892578 85.335938 L 20.892578 84.412109 L 27.729980 84.412109 L 27.729980 85.335938 Z " fill="rgb(0, 0, 0)" fill-opacity="1.000000" />
<path d="M 27.892578 85.335938 L 27.892578 84.412109 L 34.729980 84.412109 L 34.729980 85.335938 Z " fill="rgb(0, 0, 0)" fill-opacity="1.000000" />
<path d="M 34.892578 85.335938 L 34.892578 84.412109 L 41.729980 84.412109 L 41.729980 85.335938 Z " fill="rgb(0, 0, 0)" fill-opacity="1.000000" />
<path d="M 44.878906 91.319336 L 44.878906 85.335938 L 41.892578 85.335938 L 41.892578 84.412109 L 45.738281 84.412109 L 45.738281 91.319336 Z " fill="rgb(0, 0, 0)" fill-opacity="1.000000" />
<path d="M 71.670410 87.978516 Q 70.032227 87.033203 70.032227 85.142578 Q 70.032227 83.251953 71.670410 82.306641 Q 72.486816 81.833984 73.308594 81.833984 Q 74.125000 81.833984 74.946777 82.306641 Q 76.590332 83.251953 76.590332 85.142578 Q 76.590332 87.033203 74.946777 87.978516 Q 74.125000 88.451172 73.308594 88.451172 Q 72.486816 88.451172 71.670410 87.978516 Z " fill="rgb(0, 0, 0)" fill-opacity="1.000000" />
<path d="M 30.878906 65.319336 L 30.878906 51.300781 L 31.738281 51.300781 L 31.738281 65.319336 Z " fill="rgb(0, 0, 0)" fill-opacity="1.000000" />
<path d="M 31.308594 75.418945 L 28.032227 68.866211 L 34.590332 68.866211 Z " fill="rgb(0, 0, 0)" fill-opacity="1.000000" />
<path d="M 6.892578 46.335938 L 6.892578 45.412109 L 13.729980 45.412109 L 13.729980 46.335938 Z " fill="rgb(0, 0, 0)" fill-opacity="1.000000" />
<path d="M 13.892578 46.335938 L 13.892578 45.412109 L 20.729980 45.412109 L 20.729980 46.335938 Z " fill="rgb(0, 0, 0)" fill-opacity="1.000000" />
<path d="M 20.892578 46.335938 L 20.892578 45.412109 L 27.729980 45.412109 L 27.729980 46.335938 Z " fill="rgb(0, 0, 0)" fill-opacity="1.000000" />
<path d="M 27.892578 46.335938 L 27.892578 45.412109 L 34.729980 45.412109 L 34.729980 46.335938 Z " fill="rgb(0, 0, 0)" fill-opacity="1.000000" />
<path d="M 34.892578 46.335938 L 34.892578 45.412109 L 41.729980 45.412109 L 41.729980 46.335938 Z " fill="rgb(0, 0, 0)" fill-opacity="1.000000" />
<path d="M 41.892578 46.335938 L 41.892578 45.412109 L 48.729980 45.412109 L 48.729980 46.335938 Z " fill="rgb(0, 0, 0)" fill-opacity="1.000000" />
<path d="M 48.892578 46.335938 L 48.892578 45.412109 L 55.729980 45.412109 L 55.729980 46.335938 Z " fill="rgb(0, 0, 0)" fill-opacity="1.000000" />
<path d="M 55.892578 46.335938 L 55.892578 45.412109 L 58.878906 45.412109 L 58.878906 38.300781 L 59.738281 38.300781 L 59.738281 46.335938 Z " fill="rgb(0, 0, 0)" fill-opacity="1.000000" />
<path d="M 11.167969 31.708496 Q 11.957520 31.917969 12.376465 32.452393 Q 12.795410 32.986816 12.795410 33.787109 Q 12.795410 34.893555 12.051514 35.524658 Q 11.307617 36.155762 9.991699 36.155762 Q 9.438477 36.155762 8.863770 36.053711 Q 8.289062 35.951660 7.735840 35.758301 L 7.735840 34.678711 Q 8.283691 34.963379 8.815430 35.103027 Q 9.347168 35.242676 9.873535 35.242676 Q 10.765137 35.242676 11.243164 34.839844 Q 11.721191 34.437012 11.721191 33.679688 Q 11.721191 32.981445 11.243164 32.570557 Q 10.765137 32.159668 9.948730 32.159668 L 9.121582 32.159668 L 9.121582 31.268066 L 9.948730 31.268066 Q 10.695312 31.268066 11.114258 30.940430 Q 11.533203 30.612793 11.533203 30.027344 Q 11.533203 29.409668 11.143799 29.079346 Q 10.754395 28.749023 10.034668 28.749023 Q 9.556641 28.749023 9.046387 28.856445 Q 8.536133 28.963867 7.977539 29.178711 L 7.977539 28.179688 Q 8.627441 28.007812 9.135010 27.921875 Q 9.642578 27.835938 10.034668 27.835938 Q 11.205566 27.835938 11.906494 28.424072 Q 12.607422 29.012207 12.607422 29.984375 Q 12.607422 30.645020 12.239502 31.085449 Q 11.871582 31.525879 11.167969 31.708496 Z " fill="rgb(0, 0, 0)" fill-opacity="1.000000" />
<path d="M 16.003418 35.086914 L 19.687988 35.086914 L 19.687988 36.000000 L 14.816406 36.000000 L 14.816406 35.086914 Q 15.820801 34.028809 16.572754 33.217773 Q 17.324707 32.406738 17.609375 32.073730 Q 18.146484 31.418457 18.334473 31.012939 Q 18.522461 30.607422 18.522461 30.183105 Q 18.522461 29.511719 18.127686 29.130371 Q 17.732910 28.749023 17.045410 28.749023 Q 16.556641 28.749023 16.019531 28.926270 Q 15.482422 29.103516 14.880859 29.463379 L 14.880859 28.367676 Q 15.434082 28.104492 15.968506 27.970215 Q 16.502930 27.835938 17.023926 27.835938 Q 18.200195 27.835938 18.917236 28.461670 Q 19.634277 29.087402 19.634277 30.102539 Q 19.634277 30.618164 19.395264 31.133789 Q 19.156250 31.649414 18.619141 32.272461 Q 18.318359 32.621582 17.746338 33.239258 Q 17.174316 33.856934 16.003418 35.086914 Z " fill="rgb(0, 0, 0)" fill-opacity="1.000000" />
<path d="M 27.004883 29.984375 L 24.851074 32.863281 L 27.214355 36.000000 L 26.070312 36.000000 L 24.308594 33.588379 L 22.552246 36.000000 L 21.408203 36.000000 L 23.771484 32.863281 L 21.617676 29.984375 L 22.713379 29.984375 L 24.308594 32.159668 L 25.893066 29.984375 Z " fill="rgb(0, 0, 0)" fill-opacity="1.000000" />
<path d="M 32.167969 31.708496 Q 32.957520 31.917969 33.376465 32.452393 Q 33.795410 32.986816 33.795410 33.787109 Q 33.795410 34.893555 33.051514 35.524658 Q 32.307617 36.155762 30.991699 36.155762 Q 30.438477 36.155762 29.863770 36.053711 Q 29.289062 35.951660 28.735840 35.758301 L 28.735840 34.678711 Q 29.283691 34.963379 29.815430 35.103027 Q 30.347168 35.242676 30.873535 35.242676 Q 31.765137 35.242676 32.243164 34.839844 Q 32.721191 34.437012 32.721191 33.679688 Q 32.721191 32.981445 32.243164 32.570557 Q 31.765137 32.159668 30.948730 32.159668 L 30.121582 32.159668 L 30.121582 31.268066 L 30.948730 31.268066 Q 31.695312 31.268066 32.114258 30.940430 Q 32.533203 30.612793 32.533203 30.027344 Q 32.533203 29.409668 32.143799 29.079346 Q 31.754395 28.749023 31.034668 28.749023 Q 30.556641 28.749023 30.046387 28.856445 Q 29.536133 28.963867 28.977539 29.178711 L 28.977539 28.179688 Q 29.627441 28.007812 30.135010 27.921875 Q 30.642578 27.835938 31.034668 27.835938 Q 32.205566 27.835938 32.906494 28.424072 Q 33.607422 29.012207 33.607422 29.984375 Q 33.607422 30.645020 33.239502 31.085449 Q 32.871582 31.525879 32.167969 31.708496 Z " fill="rgb(0, 0, 0)" fill-opacity="1.000000" />
<path d="M 37.003418 35.086914 L 40.687988 35.086914 L 40.687988 36.000000 L 35.816406 36.000000 L 35.816406 35.086914 Q 36.820801 34.028809 37.572754 33.217773 Q 38.324707 32.406738 38.609375 32.073730 Q 39.146484 31.418457 39.334473 31.012939 Q 39.522461 30.607422 39.522461 30.183105 Q 39.522461 29.511719 39.127686 29.130371 Q 38.732910 28.749023 38.045410 28.749023 Q 37.556641 28.749023 37.019531 28.926270 Q 36.482422 29.103516 35.880859 29.463379 L 35.880859 28.367676 Q 36.434082 28.104492 36.968506 27.970215 Q 37.502930 27.835938 38.023926 27.835938 Q 39.200195 27.835938 39.917236 28.461670 Q 40.634277 29.087402 40.634277 30.102539 Q 40.634277 30.618164 40.395264 31.133789 Q 40.156250 31.649414 39.619141 32.272461 Q 39.318359 32.621582 38.746338 33.239258 Q 38.174316 33.856934 37.003418 35.086914 Z " fill="rgb(0, 0, 0)" fill-opacity="1.000000" />
<path d="M 48.004883 29.984375 L 45.851074 32.863281 L 48.214355 36.000000 L 47.070312 36.000000 L 45.308594 33.588379 L 43.552246 36.000000 L 42.408203 36.000000 L 44.771484 32.863281 L 42.617676 29.984375 L 43.713379 29.984375 L 45.308594 32.159668 L 46.893066 29.984375 Z " fill="rgb(0, 0, 0)" fill-opacity="1.000000" />
<path d="M 53.167969 31.708496 Q 53.957520 31.917969 54.376465 32.452393 Q 54.795410 32.986816 54.795410 33.787109 Q 54.795410 34.893555 54.051514 35.524658 Q 53.307617 36.155762 51.991699 36.155762 Q 51.438477 36.155762 50.863770 36.053711 Q 50.289062 35.951660 49.735840 35.758301 L 49.735840 34.678711 Q 50.283691 34.963379 50.815430 35.103027 Q 51.347168 35.242676 51.873535 35.242676 Q 52.765137 35.242676 53.243164 34.839844 Q 53.721191 34.437012 53.721191 33.679688 Q 53.721191 32.981445 53.243164 32.570557 Q 52.765137 32.159668 51.948730 32.159668 L 51.121582 32.159668 L 51.121582 31.268066 L 51.948730 31.268066 Q 52.695312 31.268066 53.114258 30.940430 Q 53.533203 30.612793 53.533203 30.027344 Q 53.533203 29.409668 53.143799 29.079346 Q 52.754395 28.749023 52.034668 28.749023 Q 51.556641 28.749023 51.046387 28.856445 Q 50.536133 28.963867 49.977539 29.178711 L 49.977539 28.179688 Q 50.627441 28.007812 51.135010 27.921875 Q 51.642578 27.835938 52.034668 27.835938 Q 53.205566 27.835938 53.906494 28.424072 Q 54.607422 29.012207 54.607422 29.984375 Q 54.607422 30.645020 54.239502 31.085449 Q 53.871582 31.525879 53.167969 31.708496 Z " fill="rgb(0, 0, 0)" fill-opacity="1.000000" />
<path d="M 58.878906 39.319336 L 58.878906 25.300781 L 59.738281 25.300781 L 59.738281 39.319336 Z " fill="rgb(0, 0, 0)" fill-opacity="1.000000" />
<path d="M 15.079590 14.980957 L 19.532227 14.980957 L 19.532227 15.894043 L 17.851074 15.894043 L 17.851074 22.086914 L 19.532227 22.086914 L 19.532227 23.000000 L 15.079590 23.000000 L 15.079590 22.086914 L 16.760742 22.086914 L 16.760742 15.894043 L 15.079590 15.894043 Z " fill="rgb(0, 0, 0)" fill-opacity="1.000000" />
<path d="M 26.645020 19.272461 L 26.645020 23.000000 L 25.651367 23.000000 L 25.651367 19.272461 Q 25.651367 18.461426 25.366699 18.080078 Q 25.082031 17.698730 24.475098 17.698730 Q 23.782227 17.698730 23.408936 18.190186 Q 23.035645 18.681641 23.035645 19.600098 L 23.035645 23.000000 L 22.047363 23.000000 L 22.047363 16.984375 L 23.035645 16.984375 L 23.035645 17.886719 Q 23.298828 17.371094 23.750000 17.105225 Q 24.201172 16.839355 24.818848 16.839355 Q 25.737305 16.839355 26.191162 17.443604 Q 26.645020 18.047852 26.645020 19.272461 Z " fill="rgb(0, 0, 0)" fill-opacity="1.000000" />
<path d="M 30.014160 22.242676 L 30.014160 25.288086 L 29.020508 25.288086 L 29.020508 16.984375 L 30.014160 16.984375 L 30.014160 17.752441 Q 30.261230 17.306641 30.672119 17.072998 Q 31.083008 16.839355 31.620117 16.839355 Q 32.710449 16.839355 33.330811 17.682617 Q 33.951172 18.525879 33.951172 20.019043 Q 33.951172 21.485352 33.328125 22.320557 Q 32.705078 23.155762 31.620117 23.155762 Q 31.072266 23.155762 30.661377 22.922119 Q 30.250488 22.688477 30.014160 22.242676 Z M 32.914551 19.997559 Q 32.914551 18.848145 32.552002 18.262695 Q 32.189453 17.677246 31.475098 17.677246 Q 30.755371 17.677246 30.384766 18.265381 Q 30.014160 18.853516 30.014160 19.997559 Q 30.014160 21.136230 30.384766 21.727051 Q 30.755371 22.317871 31.475098 22.317871 Q 32.189453 22.317871 32.552002 21.732422 Q 32.914551 21.146973 32.914551 19.997559 Z " fill="rgb(0, 0, 0)" fill-opacity="1.000000" />
<path d="M 36.047363 20.722656 L 36.047363 16.995117 L 37.035645 16.995117 L 37.035645 20.722656 Q 37.035645 21.533691 37.322998 21.915039 Q 37.610352 22.296387 38.211914 22.296387 Q 38.910156 22.296387 39.280762 21.804932 Q 39.651367 21.313477 39.651367 20.395020 L 39.651367 16.995117 L 40.645020 16.995117 L 40.645020 23.000000 L 39.651367 23.000000 L 39.651367 22.097656 Q 39.388184 22.618652 38.934326 22.887207 Q 38.480469 23.155762 37.873535 23.155762 Q 36.949707 23.155762 36.498535 22.551514 Q 36.047363 21.947266 36.047363 20.722656 Z " fill="rgb(0, 0, 0)" fill-opacity="1.000000" />
<path d="M 45.297852 15.276367 L 45.297852 16.984375 L 47.542969 16.984375 L 47.542969 17.752441 L 45.297852 17.752441 L 45.297852 21.018066 Q 45.297852 21.684082 45.550293 21.947266 Q 45.802734 22.210449 46.431152 22.210449 L 47.542969 22.210449 L 47.542969 23.000000 L 46.334473 23.000000 Q 45.222656 23.000000 44.766113 22.554199 Q 44.309570 22.108398 44.309570 21.018066 L 44.309570 17.752441 L 42.703613 17.752441 L 42.703613 16.984375 L 44.309570 16.984375 L 44.309570 15.276367 Z " fill="rgb(0, 0, 0)" fill-opacity="1.000000" />
<path d="M 58.878906 26.319336 L 58.878906 12.300781 L 59.738281 12.300781 L 59.738281 26.319336 Z " fill="rgb(0, 0, 0)" fill-opacity="1.000000" />
<path d="M 6.892578 7.335938 L 6.892578 6.412109 L 13.729980 6.412109 L 13.729980 7.335938 Z " fill="rgb(0, 0, 0)" fill-opacity="1.000000" />
<path d="M 13.892578 7.335938 L 13.892578 6.412109 L 20.729980 6.412109 L 20.729980 7.335938 Z " fill="rgb(0, 0, 0)" fill-opacity="1.000000" />
<path d="M 20.892578 7.335938 L 20.892578 6.412109 L 27.729980 6.412109 L 27.729980 7.335938 Z " fill="rgb(0, 0, 0)" fill-opacity="1.000000" />
<path d="M 27.892578 7.335938 L 27.892578 6.412109 L 34.729980 6.412109 L 34.729980 7.335938 Z " fill="rgb(0, 0, 0)" fill-opacity="1.000000" />
<path d="M 34.892578 7.335938 L 34.892578 6.412109 L 41.729980 6.412109 L 41.729980 7.335938 Z " fill="rgb(0, 0, 0)" fill-opacity="1.000000" />
<path d="M 41.892578 7.335938 L 41.892578 6.412109 L 48.729980 6.412109 L 48.729980 7.335938 Z " fill="rgb(0, 0, 0)" fill-opacity="1.000000" />
<path d="M 48.892578 7.335938 L 48.892578 6.412109 L 55.729980 6.412109 L 55.729980 7.335938 Z " fill="rgb(0, 0, 0)" fill-opacity="1.000000" />
<path d="M 58.878906 13.319336 L 58.878906 7.335938 L 55.892578 7.335938 L 55.892578 6.412109 L 59.738281 6.412109 L 59.738281 13.319336 Z " fill="rgb(0, 0, 0)" fill-opacity="1.000000" />
</svg>